HIERARCHY
ROOT root
{
	OFFSET	0	13.1	24.9
	CHANNELS 6  Xposition Yposition Zposition Xrotation Yrotation Zrotation
	JOINT spine_1
	{
		OFFSET	0	9.99999	0
		CHANNELS 3  Xrotation Yrotation Zrotation
		JOINT spine_2
		{
			OFFSET	0	112	-10
			CHANNELS 3  Xrotation Yrotation Zrotation
			JOINT spine_3
			{
				OFFSET	0	206.5	19.3
				CHANNELS 3  Xrotation Yrotation Zrotation
				JOINT spine_4
				{
					OFFSET	0	110.4	14.6
					CHANNELS 3  Xrotation Yrotation Zrotation
					JOINT neck_1
					{
						OFFSET	0	71.8	-50.3
						CHANNELS 3  Xrotation Yrotation Zrotation
						JOINT neck_2
						{
							OFFSET	0	86.2	-25.8
							CHANNELS 3  Xrotation Yrotation Zrotation
							JOINT head_ee
							{
								OFFSET	0	179.8	-8.7
								CHANNELS 3  Xrotation Yrotation Zrotation
								End Site
								{
									OFFSET	1	0	0
								}
							}
						}
					}
					JOINT left_clavicle
					{
						OFFSET	-43.2	22.4	-70.8
						CHANNELS 3  Xrotation Yrotation Zrotation
						JOINT left_shoulder
						{
							OFFSET	-93.9	-5.79999	48.7
							CHANNELS 3  Xrotation Yrotation Zrotation
							JOINT left_elbow
							{
								OFFSET	-291.4	-30.8	15.2
								CHANNELS 3  Xrotation Yrotation Zrotation
								JOINT left_lowarm_twist
								{
									OFFSET	-110.7	-3.89999	13.6
									CHANNELS 3  Xrotation Yrotation Zrotation
									JOINT left_hand
									{
										OFFSET	-110.7	-3.89999	13.6
										CHANNELS 3  Xrotation Yrotation Zrotation
										JOINT left_ee
										{
											OFFSET	-80.8	-5.10001	12.1
											CHANNELS 3  Xrotation Yrotation Zrotation
											End Site
											{
												OFFSET	1	0	0
											}
										}
									}
								}
							}
						}
					}
					JOINT right_clavicle
					{
						OFFSET	43.2	22.4	-70.8
						CHANNELS 3  Xrotation Yrotation Zrotation
						JOINT right_shoulder
						{
							OFFSET	93.9	-5.79999	48.7
							CHANNELS 3  Xrotation Yrotation Zrotation
							JOINT right_elbow
							{
								OFFSET	291.4	-30.8	15.2
								CHANNELS 3  Xrotation Yrotation Zrotation
								JOINT right_lowarm_twist
								{
									OFFSET	110.7	-3.89999	13.6
									CHANNELS 3  Xrotation Yrotation Zrotation
									JOINT right_hand
									{
										OFFSET	110.7	-3.89999	13.6
										CHANNELS 3  Xrotation Yrotation Zrotation
										JOINT right_ee
										{
											OFFSET	80.8	-5.10001	12.1
											CHANNELS 3  Xrotation Yrotation Zrotation
											End Site
											{
												OFFSET	1	0	0
											}
										}
									}
								}
							}
						}
					}
				}
			}
		}
	}
	JOINT left_hip
	{
		OFFSET	-82.8	-127.5	0.300001
		CHANNELS 3  Xrotation Yrotation Zrotation
		JOINT left_knee
		{
			OFFSET	-28.2	-396.7	2.2
			CHANNELS 3  Xrotation Yrotation Zrotation
			JOINT left_ankle
			{
				OFFSET	-11.7	-411.3	35.4
				CHANNELS 3  Xrotation Yrotation Zrotation
				JOINT left_toes
				{
					OFFSET	0	-60	-88.6
					CHANNELS 3  Xrotation Yrotation Zrotation
					JOINT left_foot_ee
					{
						OFFSET	-22.5	-16.5	-42.2
						CHANNELS 3  Xrotation Yrotation Zrotation
						End Site
						{
							OFFSET	1	0	0
						}
					}
				}
			}
		}
	}
	JOINT right_hip
	{
		OFFSET	82.8	-127.5	0.300001
		CHANNELS 3  Xrotation Yrotation Zrotation
		JOINT right_knee
		{
			OFFSET	28.2	-396.7	2.2
			CHANNELS 3  Xrotation Yrotation Zrotation
			JOINT right_ankle
			{
				OFFSET	11.7	-411.3	35.4
				CHANNELS 3  Xrotation Yrotation Zrotation
				JOINT right_toes
				{
					OFFSET	0	-60	-88.6
					CHANNELS 3  Xrotation Yrotation Zrotation
					JOINT right_foot_ee
					{
						OFFSET	22.5	-16.5	-42.2
						CHANNELS 3  Xrotation Yrotation Zrotation
						End Site
						{
							OFFSET	1	0	0
						}
					}
				}
			}
		}
	}
}
MOTION
Frames: 5
Frame Time: 0.02
1372.05 701.618 -1475.22 -3.27875859131 44.3089325031 3.3760486922 -2.42801 -0.14796 -0.506422 -2.42787 -0.115436 -0.514811 -2.42664 0.0176845 -0.527297 -2.42702 -0.0658131 -0.523473 1.98184 8.05462 0.680737 2.14425 13.5848 1.39594 -0.0 0.0 -0.0 7.21273 -21.3124 13.1348 3.73919 -17.6727 54.0693 3.0647 -56.6156 1.65099 18.5764 0.276309 -2.3465 0.498397 -7.32108 0.257795 -0.0 0.0 -0.0 10.9741 2.54766 -21.8244 -27.1926 19.2823 -54.2136 0.366989 10.3038 -0.0330882 22.6322 -0.234759 2.86279 -0.889092 -17.6158 -1.74937 0.0 0.0 0.0 -20.3658 10.1438 4.93636 -5.24906 0.180252 0.785128 36.5826 11.1225 -4.57226 -26.357 0.0 0.0 -0.0 0.0 -0.0 35.9889 1.47163 -2.57003 -6.68136 -0.216871 -1.00188 -7.26108 2.548 -1.09902 -34.6554 0.0 0.0 0.0 0.0 0.0 
1345.37420941 699.646 -1515.77132113 -2.95686412328 46.92454353 2.25731866719 -2.5877 0.00795226 -0.380891 -2.58762 0.032173 -0.379613 -2.58775 0.12758 -0.358977 -2.58793 0.0692852 -0.37462 2.74138 8.66676 1.52665 2.9179 13.8505 2.31562 -0.0 0.0 -0.0 7.54109 -21.9191 13.8027 0.522755 -16.775 53.6082 2.76631 -53.8704 1.40577 17.0492 0.282469 -2.15155 0.632301 -5.65989 1.86515 -0.0 0.0 -0.0 11.405 2.03813 -22.7217 -26.5558 19.4823 -53.6492 0.370502 10.4003 -0.0337194 23.5265 -0.220687 2.97615 -0.979882 -18.6971 -1.66682 0.0 0.0 0.0 -21.4889 8.21782 4.05174 -6.47516 0.211933 0.970621 39.1806 11.2637 -4.81407 -27.2145 0.0 0.0 -0.0 0.0 -0.0 34.3231 1.81611 -3.10432 -8.38513 -0.253354 -1.26078 -7.95152 4.22771 -1.21247 -34.2637 0.0 0.0 0.0 0.0 0.0 
1317.77594801 702.35 -1541.58112202 -3.5477767483 49.3052642571 2.3850626685 -2.65115 -0.053126 -0.405979 -2.65106 -0.0271851 -0.408536 -2.65075 0.0779606 -0.401949 -2.65098 0.0135023 -0.409217 1.70665 7.69261 1.38568 1.83376 12.387 2.16641 -0.0 0.0 -0.0 8.07769 -21.6089 15.0093 -2.60462 -15.8243 54.1058 2.57343 -51.8795 1.25196 14.9737 0.282507 -1.88646 0.835494 -6.45654 2.90044 -0.0 0.0 -0.0 11.3613 1.41465 -22.5916 -25.6451 18.7983 -54.2234 0.383345 10.7525 -0.0360768 23.9361 -0.213651 3.028 -0.805793 -17.0142 -1.99875 0.0 0.0 0.0 -22.4832 7.6437 4.00236 -7.53504 0.236113 1.13147 39.5675 10.2685 -4.84032 -26.9523 0.0 0.0 -0.0 0.0 -0.0 33.4314 1.87523 -2.57212 -9.56928 -0.274167 -1.44129 -8.57663 4.33842 -1.30968 -33.8241 0.0 0.0 0.0 0.0 0.0 
1318.33245432 702.35 -1542.03239796 -3.51377280472 48.8273200412 2.34005263432 -2.65115 -0.053126 -0.405979 -2.65106 -0.0271851 -0.408536 -2.65075 0.0779606 -0.401949 -2.65098 0.0135023 -0.409217 1.70665 7.69261 1.38568 1.83376 12.387 2.16641 -0.0 0.0 -0.0 8.07769 -21.6089 15.0093 -2.60462 -15.8243 54.1058 2.57343 -51.8795 1.25196 14.9737 0.282507 -1.88646 0.835494 -6.45654 2.90044 -0.0 0.0 -0.0 11.3613 1.41465 -22.5916 -25.6451 18.7983 -54.2234 0.383345 10.7525 -0.0360768 23.9361 -0.213651 3.028 -0.805793 -17.0142 -1.99875 0.0 0.0 0.0 -22.4832 7.6437 4.00236 -7.53504 0.236113 1.13147 39.5675 10.2685 -4.84032 -26.9523 0.0 0.0 -0.0 0.0 -0.0 33.4314 1.87523 -2.57212 -9.56928 -0.274167 -1.44129 -8.57663 4.33842 -1.30968 -33.8241 0.0 0.0 0.0 0.0 0.0 
1273.03748155 707.01 -1577.98191765 -1.69025089998 52.6542704475 0.452542061146 -2.50505 0.133884 -0.416603 -2.50496 0.160122 -0.40724 -2.50607 0.257848 -0.353551 -2.50619 0.198775 -0.389835 2.32193 6.43407 0.460504 2.42962 10.8871 1.00573 -0.0 0.0 -0.0 8.62456 -21.9379 16.189 -7.28422 -13.8814 55.6259 2.10056 -46.133 0.894596 11.758 0.263611 -1.47623 1.00646 -6.15712 4.18266 -0.0 0.0 -0.0 10.9047 0.927634 -21.5931 -24.1808 18.6394 -54.8841 0.408763 11.4472 -0.0409702 25.1216 -0.191198 3.17778 -0.62334 -15.1303 -2.32298 0.0 0.0 0.0 -21.5812 6.93507 4.36497 -16.5582 0.320739 2.51195 40.6353 7.85519 -4.9189 -25.4312 0.0 0.0 -0.0 0.0 -0.0 29.0665 1.97119 -2.28371 -12.1704 -0.30676 -1.83904 -6.66187 4.41431 -1.01435 -33.0069 0.0 0.0 0.0 0.0 0.0 
